<svg xmlns="http://www.w3.org/2000/svg" width="44" height="44" viewBox="0 0 44 44">
    <g id="Group_2055" data-name="Group 2055" transform="translate(-31 -726)">
        <rect id="Rectangle" width="44" height="44" rx="22" transform="translate(31 726)" fill="#f7f7f7"/>
        <g id="Icons_icon-bookmark-filled" data-name="Icons/icon-bookmark-filled" transform="translate(41 736)">
            <path id="Path" d="M9.762,0H.238A.226.226,0,0,0,0,.241V13.747a.254.254,0,0,0,.119.217.214.214,0,0,0,.238,0L5,11.142l4.643,2.822a.177.177,0,0,0,.119.024.212.212,0,0,0,.119-.024A.254.254,0,0,0,10,13.747V.241A.226.226,0,0,0,9.762,0Z" transform="translate(7 5)"/>
        </g>
    </g>
</svg>
